<svg xmlns="http://www.w3.org/2000/svg" width="256px" height="256px" viewBox="0 0 16 16" fill="none" stroke="none">

<g id="SVGRepo_bgCarrier" stroke-width="0"/>

<g id="SVGRepo_tracerCarrier" stroke-linecap="round" stroke-linejoin="round" stroke="none" stroke-width="1.152">

<path fill-rule="evenodd" clip-rule="evenodd" d="M8 12a4 4 0 1 0 0-8 4 4 0 0 0 0 8zm2.61-4a2.61 2.61 0 1 1-5.22 0 2.61 2.61 0 0 1 5.22 0zM8 5.246z"/>

</g>

<g id="SVGRepo_iconCarrier">

<path   fill="none"
  stroke="currentColor"
  stroke-width="2" d="M8 12a4 4 0 1 0 0-8 4 4 0 0 0 0 8zm2.61-4a2.61 2.61 0 1 1-5.22 0 2.61 2.61 0 0 1 5.22 0zM8 5.246z"/>

</g>

</svg>